<?xml version="1.0" encoding="utf-8"?>
<!-- Generator: Adobe Illustrator 16.0.0, SVG Export Plug-In . SVG Version: 6.00 Build 0)  -->
<!DOCTYPE svg PUBLIC "-//W3C//DTD SVG 1.1//EN" "http://www.w3.org/Graphics/SVG/1.1/DTD/svg11.dtd">
<svg version="1.1" id="Layer_1" xmlns="http://www.w3.org/2000/svg" xmlns:xlink="http://www.w3.org/1999/xlink" x="0px" y="0px"
	 width="256px" height="256px" viewBox="0 0 256 256" enable-background="new 0 0 256 256" xml:space="preserve">
<rect fill="#6C0BB5" width="256" height="256"/>
<g>
	<path fill="#FFFFFF" d="M213.996,167.025c-10.178-4.99-21.368-6.143-32.264-8.39c-0.705-0.143-1.642,0.284-2.336,0.688
		c-12.227,7.043-25.864,8.901-39.502,9.827c-14.708,1.002-29.193-1.276-43.334-5.271c0.017-0.586,0.033-1.164,0.053-1.742
		c5.397,0.605,10.784,1.307,16.187,1.814c16.084,1.503,31.998,1.004,47.578-3.941c4.897-1.562,7.072-3.16,3.218-8.436
		c-4.869-6.678-9.721-14.779-7.895-22.662c1.992-8.607-1.602-10.383-7.881-11.994c-0.291-0.072-0.457-0.658-0.74-1.102
		c4.493-6.068,10.624-7.225,17.4-5.255c5.028,1.456,9.895,3.513,14.761,5.475c6.813,2.756,13.366,7.278,21.805,2.155
		c-8.78,4.618-6.551,12.747-7.907,19.522c-0.796,3.979,0.926,5.116,4.506,3.557c12.002-5.24,16.685-26.997,7.682-36.399
		c-7.954-8.314-17.43-14.55-27.902-19.325c-3.139-1.424-5.836-1.339-8.873,0.478c-4.654,2.78-9.468,5.446-15.443,5.603
		c0.607-2.88,2.604-3.928,4.054-5.353c7.456-7.377,6.409-12.744-3.388-16.871c-2.799-1.18-5.676-1.321-8.674-0.674
		c-13.507,2.917-24.682,10.511-35.967,17.838c-2.902,1.874-2.418,3.807,0.415,5.74c4.319,2.943,9.324,5.137,12.171,9.832
		c0.796,1.314,2.123,3.056,0.701,4.654c-1.369,1.528-3.112,0.73-4.653-0.039c-3.942-1.982-7.892-3.931-11.79-5.99
		c-2.209-1.172-4.775-1.854-6.561-0.225c-4.837,4.418-4.4,10.66-4.667,16.49c-0.185,4.156,3.467,4.605,6.344,5.842
		c4.064,1.745,8.819,2.833,10.233,9.087c-6.48-1.557-12.401-2.775-18.192-4.442c-4.872-1.401-7.576,0.596-9.561,4.756
		c-2.658,5.561-4.234,11.437-4.844,17.517c-0.329,3.246-1.29,4.633-4.868,5.034c-7.311,0.82-14.675,1.927-21.758,3.861
		c-5.4,1.469-13.366,2.053-13.636,9.012c-0.256,6.435,7.218,8.033,12.367,10.037c15.042,5.856,30.895,8.088,46.852,9.646
		c27.478,2.694,54.857,1.2,82.113-2.655c11.643-1.646,23.354-3.381,34.145-8.574c2.062-0.994,4.479-2.021,4.273-4.869
		C218.04,168.861,215.872,167.941,213.996,167.025z M179.906,99.514l1.554-3.146l1.556,3.146l3.471,0.505l-2.506,2.45l0.592,3.466
		l-3.111-1.634l-3.102,1.634l0.588-3.466l-2.512-2.45L179.906,99.514z M142.712,132.643l5.341,0.776l-3.861,3.769l0.912,5.319
		l-4.775-2.511l-4.773,2.511l0.913-5.319l-3.86-3.769l5.336-0.776l2.386-4.836L142.712,132.643z M130.928,90.005l1.676-3.386
		l1.672,3.386l3.74,0.544l-2.705,2.635l0.641,3.727l-3.346-1.758l-3.346,1.758l0.641-3.727l-2.706-2.635L130.928,90.005z
		 M90.289,143.906l5.245-0.762l2.346-4.758l2.348,4.758l5.243,0.762l-3.798,3.697l0.898,5.229l-4.691-2.471l-4.691,2.471
		l0.896-5.229L90.289,143.906z"/>
</g>
</svg>
